<?xml version="1.0" encoding="UTF-8"?>
<!DOCTYPE svg PUBLIC "-//W3C//DTD SVG 1.1//EN" "http://www.w3.org/Graphics/SVG/1.1/DTD/svg11.dtd">
<!-- Creator: CorelDRAW 2019 (64-Bit) -->
<svg xmlns="http://www.w3.org/2000/svg" xml:space="preserve" width="5.47541in" height="1.12913in" version="1.1" style="shape-rendering:geometricPrecision; text-rendering:geometricPrecision; image-rendering:optimizeQuality; fill-rule:evenodd; clip-rule:evenodd"
viewBox="0 0 6221.11 1282.91"
 xmlns:xlink="http://www.w3.org/1999/xlink"
 xmlns:xodm="http://www.corel.com/coreldraw/odm/2003">
 <defs>
  <style type="text/css">
   <![CDATA[
    .fil0 {fill:#FEFEFE;fill-rule:nonzero}
    .fil1 {fill:url(#id0);fill-rule:nonzero}
   ]]>
  </style>
  <linearGradient id="id0" gradientUnits="userSpaceOnUse" x1="108.34" y1="641.45" x2="763.18" y2="641.45">
   <stop offset="0" style="stop-opacity:1; stop-color:#4F26AA"/>
   <stop offset="1" style="stop-opacity:1; stop-color:#A952DD"/>
  </linearGradient>
 </defs>
 <g id="Layer_x0020_1">
  <metadata id="CorelCorpID_0Corel-Layer"/>
  <path class="fil0" d="M1332.41 1126.89l0 -107.47c-10.95,14.24 -21.91,27.52 -32.86,39.57 -9.31,10.54 -19.31,20.81 -29.98,31.08 -10.68,10.13 -20.67,17.66 -29.98,22.72 -36.14,19.85 -75.84,29.71 -119.1,29.71 -74.47,0 -132.8,-18.34 -174.96,-55.03 -42.16,-36.14 -63.25,-83.24 -63.25,-141.28 0,-70.64 27.93,-124.85 83.78,-162.64 27.93,-18.62 62.02,-32.99 102.27,-43.13 40.25,-10.13 86.93,-14.92 140.05,-14.37l100.21 1.64c-2.19,-15.88 -6.84,-31.21 -13.96,-46 -4.38,-8.21 -10.27,-16.43 -17.66,-24.64 -7.39,-8.21 -16.56,-16.15 -27.52,-23.82 -1.64,-1.1 -3.28,-2.19 -4.92,-3.29 -1.65,-1.09 -3.29,-2.19 -4.93,-3.28 -2.19,-1.1 -4.38,-2.33 -6.57,-3.69 -2.19,-1.37 -4.66,-2.6 -7.39,-3.7 -3.83,-1.1 -7.67,-2.19 -11.5,-3.28 -3.83,-1.1 -8.21,-2.19 -13.14,-3.29l-4.92 0c-3.83,-0.55 -7.67,-0.96 -11.5,-1.23 -3.83,-0.27 -8.49,-0.41 -13.97,-0.41 -18.62,0 -37.1,1.51 -55.45,4.52 -18.34,3.01 -37.1,7.53 -56.26,13.55 -19.17,6.02 -37.24,13 -54.22,20.94 -16.98,7.94 -32.31,17.11 -46,27.52l0 -155.25c27.38,-14.78 63.8,-26.83 109.25,-36.14 23.55,-4.93 46.82,-8.76 69.82,-11.5 23,-2.74 46,-4.11 69,-4.11l95.28 0c31.76,0 60.65,5.89 86.66,17.66 26.01,11.77 48.32,27.51 66.95,47.23 18.62,19.71 32.86,42.3 42.71,67.77 9.86,25.46 14.79,51.61 14.79,78.44l0 110.89 -0.82 0 0.82 334.31 -180.71 0zm4675.93 -658.01c31.76,0 60.79,6.03 87.08,18.21 26.28,12.05 48.74,28.06 67.36,47.78 18.62,19.86 32.99,42.58 43.13,68.19 10.14,25.6 15.2,51.75 15.2,78.59l0 447.71 -204.56 0 0 -374.59c0,-4.93 -2.18,-14.1 -6.57,-27.52 -4.37,-13.42 -11.22,-27.25 -20.53,-41.48 -9.3,-14.24 -21.35,-26.97 -36.14,-38.2 -14.79,-11.23 -32.86,-16.84 -54.22,-16.84 -21.36,0 -40.94,3.83 -58.73,11.5 -17.81,7.67 -33.14,19.44 -46.01,35.32 -12.87,15.88 -22.86,35.74 -29.98,59.56 -7.12,23.82 -10.68,51.89 -10.68,84.2l0 308.06 -202.9 0 0 -607.95c0,-20.26 3.7,-40.39 11.09,-60.38 7.39,-19.99 16.98,-39.03 28.75,-57.1 11.77,-18.07 25.19,-35.06 40.25,-50.94 15.06,-15.87 29.98,-29.57 44.77,-41.06 14.78,-11.51 29.02,-20.55 42.72,-27.12 13.68,-6.57 25.19,-9.85 34.5,-9.85l0 305.37c0,0 0.27,-0.27 0.82,-0.82 13.69,-18.76 28.61,-34.91 44.77,-48.74 16.16,-13.69 32.18,-25.06 48.06,-33.82 15.88,-8.77 30.94,-15.61 45.18,-20.26 14.25,-4.66 26.29,-7.26 36.15,-7.81 24.1,-2.19 42.3,-2.74 54.63,-1.65 12.32,1.1 20.95,1.65 25.88,1.65zm-703.12 658.01l0 -107.47c-10.95,14.24 -21.91,27.52 -32.86,39.57 -9.31,10.54 -19.31,20.81 -29.98,31.08 -10.68,10.13 -20.67,17.66 -29.98,22.72 -36.14,19.85 -75.84,29.71 -119.1,29.71 -74.47,0 -132.8,-18.34 -174.96,-55.03 -42.16,-36.14 -63.25,-83.24 -63.25,-141.28 0,-70.64 27.93,-124.85 83.78,-162.64 27.93,-18.62 62.02,-32.99 102.27,-43.13 40.25,-10.13 86.93,-14.92 140.05,-14.37l100.21 1.64c-2.19,-15.88 -6.84,-31.21 -13.96,-46 -4.38,-8.21 -10.27,-16.43 -17.66,-24.64 -7.39,-8.21 -16.56,-16.15 -27.52,-23.82 -1.64,-1.1 -3.28,-2.19 -4.92,-3.29 -1.65,-1.09 -3.29,-2.19 -4.93,-3.28 -2.19,-1.1 -4.38,-2.33 -6.57,-3.69 -2.19,-1.37 -4.66,-2.6 -7.39,-3.7 -3.83,-1.1 -7.67,-2.19 -11.5,-3.28 -3.83,-1.1 -8.21,-2.19 -13.14,-3.29l-4.92 0c-3.83,-0.55 -7.67,-0.96 -11.5,-1.23 -3.83,-0.27 -8.49,-0.41 -13.97,-0.41 -18.62,0 -37.1,1.51 -55.45,4.52 -18.34,3.01 -37.1,7.53 -56.26,13.55 -19.17,6.02 -37.24,13 -54.22,20.94 -16.98,7.94 -32.31,17.11 -46,27.52l0 -155.25c27.38,-14.78 63.8,-26.83 109.25,-36.14 23.55,-4.93 46.82,-8.76 69.82,-11.5 23,-2.74 46,-4.11 69,-4.11l95.28 0c31.76,0 60.65,5.89 86.66,17.66 26.01,11.77 48.32,27.51 66.95,47.23 18.62,19.71 32.86,42.3 42.71,67.77 9.86,25.46 14.79,51.61 14.79,78.44l0 110.89 -0.82 0 0.82 334.31 -180.71 0zm-9.04 -293.24c-6.57,2.74 -17.25,4.11 -32.04,4.11 -7.67,0 -16.29,0.14 -25.87,0.41 -9.58,0.27 -20.12,0.41 -31.63,0.41 -55.31,1.64 -95.56,9.58 -120.74,23.68 -26.28,15.88 -39.43,38.2 -39.43,67.08 0,22.32 8.76,39.98 26.28,53.12 16.98,13 41.89,19.57 74.75,19.57 44.36,0 80.22,-16.29 107.6,-49.01 27.38,-32.17 41.07,-66.81 41.07,-103.91l0 -15.47zm-493.55 -617.57l0.82 0 0 912.45 -179.9 0 0 -107.62c-6.57,9.31 -14.24,18.49 -23,27.52 -8.76,9.03 -18.08,17.67 -27.94,25.88 -9.85,8.22 -19.58,15.75 -29.16,22.59 -9.59,6.84 -18.48,12.19 -26.7,16.02 -38.88,19.71 -80.78,29.58 -125.69,29.58 -92.55,0 -165.12,-31.5 -217.69,-94.48 -52.02,-62.97 -78.04,-147.31 -78.04,-253.01 0,-98.58 26.02,-177.44 78.04,-236.59 26.29,-30.67 56.54,-52.72 90.77,-66.13 34.23,-13.42 73.25,-21.22 117.06,-23.41 7.67,-0.55 15.06,-0.69 22.18,-0.41 7.13,0.28 14.24,0.96 21.35,2.05l0.83 0c1.65,0 2.74,0.28 3.29,0.82 3.28,0 7.66,0.55 13.14,1.64 0.55,0 1.1,0.14 1.64,0.41 0.55,0.28 1.37,0.42 2.46,0.42 7.68,2.18 15.34,4.51 23,6.98 7.68,2.46 15.61,5.61 23.82,9.44 20.27,10.41 40.26,24.09 59.97,41.07 1.64,1.1 3.42,2.61 5.34,4.52 1.92,1.91 3.69,3.69 5.34,5.35 2.19,1.64 4.25,3.42 6.16,5.33 1.91,1.92 3.97,3.97 6.16,6.16 1.65,1.64 3.28,3.57 4.92,5.76 1.65,2.19 3.29,4.1 4.93,5.75 2.73,2.74 5.06,5.34 6.98,7.81 1.92,2.46 4.25,5.06 6.99,7.81l0 -118.89c0,-20.27 3.69,-40.26 11.08,-59.97 7.39,-19.71 17.11,-38.61 29.17,-56.68 12.05,-18.07 25.47,-34.92 40.25,-50.52 14.78,-15.61 29.72,-29.17 44.77,-40.67 15.06,-11.5 29.44,-20.53 43.13,-27.1 13.69,-6.57 25.2,-9.87 34.5,-9.87zm-246.44 721.86c28.48,-32.86 42.71,-74.48 42.71,-124.86 0,-14.79 -0.82,-29.03 -2.46,-42.71 -1.65,-13.69 -4.38,-26.57 -8.23,-38.61 -2.73,-9.31 -6.7,-18.48 -11.9,-27.52 -5.2,-9.04 -10.82,-18.21 -16.84,-27.52 -26.28,-35.05 -62.43,-52.57 -108.43,-52.57 -43.81,0 -79.14,15.88 -105.98,47.64 -26.28,32.31 -39.43,74.76 -39.43,127.33 0,55.87 12.88,101.32 38.61,136.37 25.74,33.96 61.07,50.93 105.98,50.93 42.71,0 78.03,-16.15 105.97,-48.47zm43.54 -426.94l0 -15.61 0 15.61zm-776.24 617.53l0 -373.73c0,-4.93 -0.55,-14.1 -1.64,-27.52 -1.1,-13.42 -4.52,-27.24 -10.27,-41.48 -5.75,-14.24 -14.51,-26.97 -26.28,-38.2 -11.77,-11.22 -28.34,-16.84 -49.69,-16.84 -21.35,0 -40.8,3.83 -58.32,11.5 -17.52,7.67 -32.72,19.3 -45.59,34.91 -12.87,15.61 -22.86,35.46 -29.98,59.55 -7.12,24.09 -10.68,52.3 -10.68,84.61l0 307.2 -201.24 0 0 -447.66c0,-26.83 5.89,-52.98 17.66,-78.44 11.77,-25.47 27.38,-48.05 46.82,-67.76 19.44,-19.71 41.89,-35.59 67.35,-47.64 25.47,-12.05 52.16,-18.07 80.09,-18.07l214.38 0c31.76,0 60.79,6.02 87.07,18.07 26.28,12.05 48.6,27.93 66.94,47.64 18.34,19.71 32.58,42.3 42.71,67.76 10.13,25.46 15.2,51.61 15.2,78.44l0 447.66 -204.53 0zm-692.39 -1.64l0 -107.47c-10.95,14.24 -21.91,27.52 -32.86,39.57 -9.31,10.54 -19.31,20.81 -29.98,31.08 -10.68,10.13 -20.67,17.66 -29.98,22.72 -36.14,19.85 -75.84,29.71 -119.1,29.71 -74.47,0 -132.8,-18.34 -174.96,-55.03 -42.16,-36.14 -63.25,-83.24 -63.25,-141.28 0,-70.64 27.93,-124.85 83.78,-162.64 27.93,-18.62 62.02,-32.99 102.27,-43.13 40.25,-10.13 86.93,-14.92 140.05,-14.37l100.21 1.64c-2.19,-15.88 -6.84,-31.21 -13.96,-46 -4.38,-8.21 -10.27,-16.43 -17.66,-24.64 -7.39,-8.21 -16.56,-16.15 -27.52,-23.82 -1.64,-1.1 -3.28,-2.19 -4.92,-3.29 -1.65,-1.09 -3.29,-2.19 -4.93,-3.28 -2.19,-1.1 -4.38,-2.33 -6.57,-3.69 -2.19,-1.37 -4.66,-2.6 -7.39,-3.7 -3.83,-1.1 -7.67,-2.19 -11.5,-3.28 -3.83,-1.1 -8.21,-2.19 -13.14,-3.29l-4.92 0c-3.83,-0.55 -7.67,-0.96 -11.5,-1.23 -3.83,-0.27 -8.49,-0.41 -13.97,-0.41 -18.62,0 -37.1,1.51 -55.45,4.52 -18.34,3.01 -37.1,7.53 -56.26,13.55 -19.17,6.02 -37.24,13 -54.22,20.94 -16.98,7.94 -32.31,17.11 -46,27.52l0 -155.25c27.38,-14.78 63.8,-26.83 109.25,-36.14 23.55,-4.93 46.82,-8.76 69.82,-11.5 23,-2.74 46,-4.11 69,-4.11l95.28 0c31.76,0 60.65,5.89 86.66,17.66 26.01,11.77 48.32,27.51 66.95,47.23 18.62,19.71 32.86,42.3 42.71,67.77 9.86,25.46 14.79,51.61 14.79,78.44l0 110.89 -0.82 0 0.82 334.31 -180.71 0zm-9.04 -293.24c-6.57,2.74 -17.25,4.11 -32.04,4.11 -7.67,0 -16.29,0.14 -25.87,0.41 -9.58,0.27 -20.12,0.41 -31.63,0.41 -55.31,1.64 -95.56,9.58 -120.74,23.68 -26.28,15.88 -39.43,38.2 -39.43,67.08 0,22.32 8.76,39.98 26.28,53.12 16.98,13 41.89,19.57 74.75,19.57 44.36,0 80.22,-16.29 107.6,-49.01 27.38,-32.17 41.07,-66.81 41.07,-103.91l0 -15.47zm-468.14 96.93c0,67.35 -26.56,119.65 -79.67,156.89 -52.02,36.69 -124.58,55.03 -217.67,55.03 -21.35,0 -42.3,-0.82 -62.83,-2.46 -20.54,-1.64 -40.66,-3.83 -60.37,-6.57 -20.26,-2.74 -38.46,-6.16 -54.62,-10.27 -16.15,-4.11 -30.53,-8.62 -43.12,-13.55l13.14 -154.42c5.48,2.74 14.24,6.3 26.28,10.4 12.05,4.24 27.65,9.72 46.82,16.29 38.33,13.42 79.4,20.12 123.21,20.12 30.66,0 55.85,-4.65 75.57,-13.96 18.62,-8.76 27.93,-24.64 27.93,-47.78 0,-18.62 -9.59,-33.68 -28.75,-45.18 -9.86,-5.48 -23.41,-11.22 -40.66,-17.25 -17.25,-6.02 -38.19,-11.91 -62.83,-17.39 -26.28,-6.02 -50.38,-13.69 -72.28,-23 -21.91,-9.31 -41.89,-21.08 -59.96,-35.32 -35.59,-28.06 -53.39,-71.05 -53.39,-129.23 0,-64.62 26.83,-114.86 80.49,-150.45 53.66,-35.73 121.02,-53.53 202.07,-53.53 36.14,0 73.1,3.28 110.89,9.85 18.62,3.29 35.59,6.57 50.93,9.86 15.33,3.28 29.3,7.12 41.89,11.5l-12.32 146.21c-20.81,-10.95 -46.55,-19.99 -77.21,-27.11 -32.31,-6.57 -63.25,-9.85 -92.82,-9.85 -36.14,0 -62.7,4.38 -79.68,13.14 -16.98,8.76 -25.46,22.45 -25.46,41.07 0,15.33 9.31,27.38 27.93,36.14 9.86,4.92 24.5,10.4 43.94,16.43 19.44,6.03 43.94,12.6 73.52,19.71 62.42,15.88 107.88,39.7 136.35,71.46 28.48,31.76 42.71,72.83 42.71,123.21zm-552.74 0c0,67.35 -26.56,119.65 -79.67,156.89 -52.02,36.69 -124.58,55.03 -217.67,55.03 -21.35,0 -42.3,-0.82 -62.83,-2.46 -20.54,-1.64 -40.66,-3.83 -60.37,-6.57 -20.26,-2.74 -38.46,-6.16 -54.62,-10.27 -16.15,-4.11 -30.53,-8.62 -43.12,-13.55l13.14 -154.42c5.48,2.74 14.24,6.3 26.28,10.4 12.05,4.24 27.65,9.72 46.82,16.29 38.33,13.42 79.4,20.12 123.21,20.12 30.66,0 55.85,-4.65 75.57,-13.96 18.62,-8.76 27.93,-24.64 27.93,-47.78 0,-18.62 -9.59,-33.68 -28.75,-45.18 -9.86,-5.48 -23.41,-11.22 -40.66,-17.25 -17.25,-6.02 -38.19,-11.91 -62.83,-17.39 -26.28,-6.02 -50.38,-13.69 -72.28,-23 -21.91,-9.31 -41.89,-21.08 -59.96,-35.32 -35.59,-28.06 -53.39,-71.05 -53.39,-129.23 0,-64.62 26.83,-114.86 80.49,-150.45 53.66,-35.73 121.02,-53.53 202.07,-53.53 36.14,0 73.1,3.28 110.89,9.85 18.62,3.29 35.59,6.57 50.93,9.86 15.33,3.28 29.3,7.12 41.89,11.5l-12.32 146.21c-20.81,-10.95 -46.55,-19.99 -77.21,-27.11 -32.31,-6.57 -63.25,-9.85 -92.82,-9.85 -36.14,0 -62.7,4.38 -79.68,13.14 -16.98,8.76 -25.46,22.45 -25.46,41.07 0,15.33 9.31,27.38 27.93,36.14 9.86,4.92 24.5,10.4 43.94,16.43 19.44,6.03 43.94,12.6 73.52,19.71 62.42,15.88 107.88,39.7 136.35,71.46 28.48,31.76 42.71,72.83 42.71,123.21zm-777.82 -96.93c-6.57,2.74 -17.25,4.11 -32.04,4.11 -7.67,0 -16.29,0.14 -25.87,0.41 -9.58,0.27 -20.12,0.41 -31.63,0.41 -55.31,1.64 -95.56,9.58 -120.74,23.68 -26.28,15.88 -39.43,38.2 -39.43,67.08 0,22.32 8.76,39.98 26.28,53.12 16.98,13 41.89,19.57 74.75,19.57 44.36,0 80.22,-16.29 107.6,-49.01 27.38,-32.17 41.07,-66.81 41.07,-103.91l0 -15.47z"/>
  <rect class="fil0" x="-0" y="-0" width="871.52" height="1282.91" rx="187.78" ry="269.49"/>
  <path class="fil1" d="M763.18 1146.34l-242.56 -348.85c74.85,-106.86 149.71,-213.71 224.57,-320.56 -57.37,-34.05 -122.61,-54.7 -227.38,-7.96 -19.17,8.54 -17.11,8.28 -27.92,25.47l-174.98 278.19 -1.72 0 0 -641.13 0 -0.85c-9.71,0 -21.43,3.28 -35.14,9.86 -13.71,6.57 -28.15,15.71 -43.28,27.42 -15.15,11.72 -30.29,25.43 -45.43,41.14 -15.15,15.71 -28.71,32.72 -40.71,51 -12,18.29 -21.71,37.43 -29.14,57.43 -7.43,20 -11.15,40 -11.15,60l0 12 0 629.81c51.41,95.35 121.17,132.09 204,127.03l0 -0.86 0.86 0 0 -318.84 1.72 0 163.74 293.63c28.16,50.5 222.92,26.08 284.53,26.08z"/>
 </g>
</svg>
